P3
# CREATOR: The GIMP's PNM Filter Version 1.0
16 64
255
0
0
0
0
0
0
0
0
0
0
0
0
0
0
0
0
0
0
0
0
0
0
0
0
0
0
0
0
0
0
0
0
0
0
0
0
0
0
0
0
0
0
0
0
0
0
0
0
0
0
0
0
0
0
0
0
0
0
0
0
0
0
0
0
0
0
0
0
0
0
0
0
0
0
0
0
0
0
0
0
0
0
0
0
0
0
0
0
0
0
0
0
0
0
0
0
0
0
0
0
0
0
0
0
0
0
0
0
0
0
0
0
0
0
0
0
255
0
0
255
0
0
255
0
0
255
0
0
0
0
0
0
0
0
0
0
0
0
0
0
0
0
0
0
0
0
0
0
0
0
0
0
0
0
0
0
0
0
0
0
0
0
0
0
255
0
0
255
0
0
255
0
0
255
0
0
0
0
0
0
0
0
0
0
0
0
0
0
0
0
0
0
0
0
0
0
0
0
0
0
0
0
0
0
0
0
0
0
0
0
255
255
255
0
0
255
0
0
255
255
255
255
0
0
0
0
0
0
0
0
0
0
0
0
0
0
0
0
0
0
0
0
0
0
0
0
255
255
255
0
0
0
0
0
0
0
0
0
255
255
255
0
0
255
0
0
255
255
255
255
0
0
0
0
0
0
0
0
0
255
255
255
0
0
0
0
0
0
0
0
0
0
0
255
255
255
255
255
255
255
255
255
255
255
255
255
255
255
255
0
0
255
0
0
255
255
255
255
255
255
255
255
255
255
255
255
255
255
255
255
0
0
255
0
0
0
0
0
0
0
0
255
0
0
255
255
255
255
255
255
255
255
255
255
0
0
255
0
0
255
0
0
255
0
0
255
255
255
255
255
255
255
255
255
255
0
0
255
0
0
255
0
0
0
0
0
255
0
0
255
0
0
255
0
0
255
0
0
255
0
0
255
0
0
255
0
0
255
0
0
255
0
0
255
0
0
255
0
0
255
0
0
255
0
0
255
0
0
255
0
0
255
0
0
255
0
0
255
0
0
255
0
0
255
0
0
255
0
0
255
0
0
255
0
0
255
0
0
255
0
0
255
0
0
255
0
0
255
0
0
255
0
0
255
0
0
255
0
0
255
0
0
255
0
0
255
0
0
255
0
0
255
0
0
255
0
0
255
0
0
255
0
0
255
0
0
255
0
0
255
0
0
255
0
0
255
0
0
255
0
0
255
0
0
255
0
0
255
0
0
255
0
0
255
0
0
255
0
0
255
0
0
255
0
0
255
0
0
255
0
0
255
0
0
255
0
0
255
0
0
255
0
0
255
0
0
255
0
0
255
0
0
255
0
0
255
0
0
255
0
0
255
0
0
255
0
0
255
0
0
0
0
0
0
0
0
255
0
0
255
0
0
255
0
0
255
0
0
0
0
0
0
0
0
255
0
0
255
0
0
255
0
0
255
0
0
0
0
0
255
0
0
255
0
0
0
0
0
0
0
0
0
0
0
0
0
0
255
0
0
255
0
0
0
0
0
0
0
0
0
0
0
0
0
0
255
0
0
255
0
0
0
0
0
0
0
0
0
0
0
0
0
0
0
0
0
0
0
0
0
0
0
0
0
0
0
0
0
0
0
0
0
0
0
0
0
0
0
0
0
0
0
0
0
0
0
0
0
0
0
0
0
0
0
0
0
0
0
0
0
0
0
0
0
0
0
0
0
0
0
0
0
0
0
0
0
0
0
0
0
0
0
0
0
0
0
0
0
0
0
0
0
0
0
0
0
0
0
0
0
0
0
0
0
0
0
0
0
0
0
0
0
0
0
0
0
0
0
0
0
0
0
0
0
0
0
0
0
0
0
0
0
0
0
0
0
0
0
0
0
0
0
0
0
0
0
0
0
0
0
0
0
0
0
0
0
0
0
0
0
0
0
0
0
0
0
0
0
0
0
0
0
0
0
0
0
0
0
0
0
0
0
0
0
0
0
0
0
0
0
0
0
0
0
0
0
0
0
0
0
0
0
0
0
0
0
0
0
0
0
0
0
0
0
255
0
0
255
0
0
255
0
0
255
0
0
0
0
0
0
0
0
0
0
0
0
0
0
0
0
0
0
0
0
0
0
0
0
0
0
0
0
0
0
0
0
255
0
0
255
0
0
255
0
0
255
0
0
255
0
0
255
0
0
255
0
0
255
0
0
0
0
0
0
0
0
0
0
0
0
0
0
0
0
0
0
0
0
0
0
0
255
0
0
255
0
0
255
0
0
255
0
0
255
0
0
255
0
0
255
0
0
255
0
0
255
0
0
255
0
0
0
0
0
0
0
0
0
0
0
0
0
0
0
0
0
255
0
0
255
0
0
255
0
0
255
0
0
255
0
0
255
0
0
255
0
0
255
0
0
255
0
0
255
0
0
255
0
0
255
0
0
0
0
0
0
0
0
0
0
0
255
0
0
255
255
255
255
255
255
255
255
255
255
0
0
255
0
0
255
0
0
255
0
0
255
255
255
255
255
255
255
255
255
255
0
0
255
0
0
255
0
0
0
0
0
0
0
0
255
255
255
255
255
255
255
255
255
255
255
255
255
255
255
255
0
0
255
0
0
255
255
255
255
255
255
255
255
255
255
255
255
255
255
255
255
0
0
255
0
0
0
0
0
255
0
0
255
255
255
255
255
255
255
255
255
255
255
255
255
255
255
255
0
0
255
0
0
255
255
255
255
255
255
255
255
255
255
255
255
255
255
255
255
0
0
255
0
0
255
0
0
255
0
0
255
255
255
255
0
0
0
0
0
0
0
0
0
255
255
255
0
0
255
0
0
255
255
255
255
0
0
0
0
0
0
0
0
0
255
255
255
0
0
255
0
0
255
0
0
255
0
0
255
0
0
255
0
0
0
0
0
0
0
0
0
0
0
255
0
0
255
0
0
255
0
0
255
0
0
0
0
0
0
0
0
0
0
0
255
0
0
255
0
0
255
0
0
255
0
0
255
0
0
255
0
0
255
0
0
255
0
0
255
0
0
255
0
0
255
0
0
255
0
0
255
0
0
255
0
0
255
0
0
255
0
0
255
0
0
255
0
0
255
0
0
255
0
0
255
0
0
255
0
0
255
0
0
0
0
0
0
0
0
255
0
0
255
0
0
255
0
0
255
0
0
0
0
0
0
0
0
255
0
0
255
0
0
255
0
0
255
0
0
0
0
0
255
0
0
255
0
0
0
0
0
0
0
0
0
0
0
0
0
0
255
0
0
255
0
0
0
0
0
0
0
0
0
0
0
0
0
0
255
0
0
255
0
0
0
0
0
0
0
0
0
0
0
0
0
0
0
0
0
0
0
0
0
0
0
0
0
0
0
0
0
0
0
0
0
0
0
0
0
0
0
0
0
0
0
0
0
0
0
0
0
0
0
0
0
0
0
0
0
0
0
0
0
0
0
0
0
0
0
0
0
0
0
0
0
0
0
0
0
0
0
0
0
0
0
0
0
0
0
0
0
0
0
0
0
0
0
0
0
0
0
0
0
0
0
0
0
0
0
0
0
0
0
0
0
0
0
0
0
0
0
0
0
0
0
0
0
0
0
0
0
0
0
0
0
0
0
0
0
0
0
0
0
0
0
0
0
0
0
0
0
0
0
0
0
0
0
0
0
0
0
0
0
0
0
0
0
0
0
0
0
0
0
0
0
0
0
0
0
0
0
0
0
0
0
0
0
0
0
0
0
0
0
0
0
0
0
0
0
0
0
0
0
0
0
0
0
0
0
0
0
0
0
0
0
0
0
255
0
0
255
0
0
255
0
0
0
0
0
0
0
0
0
0
0
0
0
0
0
0
0
0
0
0
0
0
0
0
0
0
0
0
0
0
0
0
0
0
0
255
0
0
255
0
0
255
0
0
255
0
0
255
0
0
255
0
0
255
0
0
255
0
0
0
0
0
0
0
0
0
0
0
0
0
0
0
0
0
0
0
0
0
0
0
255
0
0
255
0
0
255
0
0
255
0
0
255
0
0
255
0
0
255
0
0
255
0
0
255
0
0
255
0
0
0
0
0
0
0
0
0
0
0
0
0
0
0
255
255
255
255
255
255
255
255
255
0
0
255
0
0
255
0
0
255
0
0
255
255
255
255
255
255
255
255
255
255
0
0
255
0
0
255
0
0
0
0
0
0
0
0
0
255
255
255
255
255
255
255
255
255
255
255
255
255
255
255
0
0
255
0
0
255
255
255
255
255
255
255
255
255
255
255
255
255
255
255
255
0
0
255
0
0
255
0
0
0
0
0
0
0
0
0
0
0
0
255
255
255
255
255
255
255
255
255
0
0
255
0
0
255
0
0
0
0
0
0
255
255
255
255
255
255
255
255
255
0
0
255
0
0
255
0
0
0
0
0
255
0
0
0
0
0
0
255
255
255
255
255
255
255
255
255
0
0
255
0
0
255
0
0
0
0
0
0
255
255
255
255
255
255
255
255
255
0
0
255
0
0
255
0
0
255
0
0
255
0
0
255
255
255
255
255
255
255
255
255
255
0
0
255
0
0
255
0
0
255
0
0
255
255
255
255
255
255
255
255
255
255
0
0
255
0
0
255
0
0
255
0
0
255
0
0
255
0
0
255
0
0
255
0
0
255
0
0
255
0
0
255
0
0
255
0
0
255
0
0
255
0
0
255
0
0
255
0
0
255
0
0
255
0
0
255
0
0
255
0
0
255
0
0
255
0
0
255
0
0
255
0
0
255
0
0
255
0
0
255
0
0
255
0
0
255
0
0
255
0
0
255
0
0
255
0
0
255
0
0
255
0
0
255
0
0
255
0
0
255
0
0
255
0
0
255
0
0
255
0
0
255
0
0
0
0
0
0
0
0
255
0
0
255
0
0
255
0
0
255
0
0
0
0
0
0
0
0
255
0
0
255
0
0
255
0
0
255
0
0
0
0
0
255
0
0
255
0
0
0
0
0
0
0
0
0
0
0
0
0
0
255
0
0
255
0
0
0
0
0
0
0
0
0
0
0
0
0
0
255
0
0
255
0
0
0
0
0
0
0
0
0
0
0
0
0
0
0
0
0
0
0
0
0
0
0
0
0
0
0
0
0
0
0
0
0
0
0
0
0
0
0
0
0
0
0
0
0
0
0
0
0
0
0
0
0
0
0
0
0
0
0
0
0
0
0
0
0
0
0
0
0
0
0
0
0
0
0
0
0
0
0
0
0
0
0
0
0
0
0
0
0
0
0
0
0
0
0
0
0
0
0
0
0
0
0
0
0
0
0
0
0
0
0
0
0
0
0
0
0
0
0
0
0
0
0
0
0
0
0
0
0
0
0
0
0
0
0
0
0
0
0
0
0
0
0
0
0
0
0
0
0
0
0
0
0
0
0
0
0
0
0
0
0
0
0
0
0
0
0
0
0
0
0
0
0
0
0
0
0
0
0
0
0
0
0
0
0
0
0
0
0
0
0
0
0
0
0
0
0
0
0
0
0
0
0
0
0
0
0
0
0
0
0
0
0
0
0
0
0
0
255
0
0
255
0
0
255
0
0
0
0
0
0
0
0
0
0
0
0
0
0
0
0
0
0
0
0
0
0
0
0
0
0
0
0
0
0
0
0
255
0
0
255
0
0
255
0
0
255
0
0
255
0
0
255
0
0
255
0
0
255
0
0
0
0
0
0
0
0
0
0
0
0
0
0
0
0
0
0
0
0
0
0
0
255
0
0
255
0
0
255
0
0
255
0
0
255
0
0
255
0
0
255
0
0
255
0
0
255
0
0
255
0
0
0
0
0
0
0
0
0
0
0
0
0
0
0
0
0
255
0
0
255
255
255
255
255
255
255
255
255
255
0
0
255
0
0
255
0
0
255
0
0
255
255
255
255
255
255
255
255
255
255
0
0
0
0
0
0
0
0
0
0
0
255
0
0
255
255
255
255
255
255
255
255
255
255
255
255
255
255
255
255
0
0
255
0
0
255
255
255
255
255
255
255
255
255
255
255
255
255
255
255
255
0
0
0
0
0
0
0
0
255
0
0
255
255
255
255
255
255
255
255
255
255
0
0
0
0
0
0
0
0
255
0
0
255
255
255
255
255
255
255
255
255
255
0
0
0
0
0
0
0
0
0
0
0
255
0
0
255
0
0
255
255
255
255
255
255
255
255
255
255
0
0
0
0
0
0
0
0
255
0
0
255
255
255
255
255
255
255
255
255
255
0
0
0
0
0
0
0
0
255
0
0
255
0
0
255
0
0
255
0
0
255
255
255
255
255
255
255
255
255
255
0
0
255
0
0
255
0
0
255
0
0
255
255
255
255
255
255
255
255
255
255
0
0
255
0
0
255
0
0
255
0
0
255
0
0
255
0
0
255
0
0
255
0
0
255
0
0
255
0
0
255
0
0
255
0
0
255
0
0
255
0
0
255
0
0
255
0
0
255
0
0
255
0
0
255
0
0
255
0
0
255
0
0
255
0
0
255
0
0
255
0
0
255
0
0
255
0
0
255
0
0
255
0
0
255
0
0
255
0
0
255
0
0
255
0
0
255
0
0
255
0
0
255
0
0
255
0
0
255
0
0
255
0
0
255
0
0
0
0
0
0
0
0
255
0
0
255
0
0
255
0
0
255
0
0
0
0
0
0
0
0
255
0
0
255
0
0
255
0
0
255
0
0
0
0
0
255
0
0
255
0
0
0
0
0
0
0
0
0
0
0
0
0
0
255
0
0
255
0
0
0
0
0
0
0
0
0
0
0
0
0
0
255
0
0
255
0
0
0
0
0
0
0
0
0
0
0
0
0
0
0
0
0
0
0
0
0
0
0
0
0
0
0
0
0
0
0
0
0
0
0
0
0
0
0
0
0
0
0
0
0
0
0
0
0
0
0
0
0
0
0
0
0
0
0
0
0
0
0
0
0
0
0
0
0
0
0
0
0
0
0
0
0
0
0
0
0
0
0
0
0
0
0
0
0
0
0
0
0
0
0
0
0
0
0
